<?xml version="1.0" encoding="UTF-8"?>
<svg width="64px" height="12px" viewBox="0 0 64 12" version="1.1" xmlns="http://www.w3.org/2000/svg" xmlns:xlink="http://www.w3.org/1999/xlink">
    <title>hitRefresh</title>
    <g id="Logo" stroke="none" stroke-width="1" fill="none" fill-rule="evenodd">
        <g id="Artboard" transform="translate(-645.000000, -525.000000)" fill="#FFFFFF" fill-rule="nonzero">
            <path d="M647.918945,536 L647.918945,532.363281 C647.918945,531.752604 647.977051,531.291178 648.093262,530.979004 C648.209473,530.666829 648.392904,530.433268 648.643555,530.27832 C648.894206,530.123372 649.179036,530.045898 649.498047,530.045898 C649.776042,530.045898 650.007324,530.106283 650.191895,530.227051 C650.376465,530.347819 650.505208,530.510742 650.578125,530.71582 C650.651042,530.920898 650.6875,531.403971 650.6875,532.165039 L650.6875,532.165039 L650.6875,536 L652.608398,536 L652.608398,531.741211 C652.608398,531.089518 652.575358,530.608724 652.509277,530.298828 C652.443197,529.988932 652.32015,529.70638 652.140137,529.451172 C651.960124,529.195964 651.692383,528.986328 651.336914,528.822266 C650.981445,528.658203 650.582682,528.576172 650.140625,528.576172 C649.279297,528.576172 648.538737,528.938477 647.918945,529.663086 L647.918945,529.663086 L647.918945,525.978516 L645.998047,525.978516 L645.998047,536 L647.918945,536 Z M655.964206,527.755859 L655.964206,525.978516 L654.043307,525.978516 L654.043307,527.755859 L655.964206,527.755859 Z M655.964206,536 L655.964206,528.740234 L654.043307,528.740234 L654.043307,536 L655.964206,536 Z M659.388372,536.164062 C659.953477,536.164062 660.459336,536.068359 660.905951,535.876953 L660.905951,535.876953 L660.741888,534.386719 C660.404648,534.509766 660.147161,534.571289 659.969427,534.571289 C659.841823,534.571289 659.733587,534.539388 659.64472,534.475586 C659.555853,534.411784 659.498887,534.330892 659.473822,534.23291 C659.448757,534.134928 659.436224,533.789714 659.436224,533.197266 L659.436224,530.271484 L660.748724,530.271484 L660.748724,528.740234 L659.436224,528.740234 L659.436224,526.176758 L657.50849,527.297852 L657.50849,528.740234 L656.626654,528.740234 L656.626654,530.271484 L657.50849,530.271484 L657.50849,533.436523 C657.50849,534.11556 657.528997,534.566732 657.570013,534.790039 C657.620143,535.104492 657.71015,535.354004 657.840033,535.538574 C657.969915,535.723145 658.173854,535.873535 658.451849,535.989746 C658.729844,536.105957 659.042018,536.164062 659.388372,536.164062 Z M663.612344,536 L663.612344,531.816406 L664.0225,531.816406 C664.487344,531.816406 664.826862,531.854004 665.041055,531.929199 C665.255247,532.004395 665.458047,532.143392 665.649453,532.346191 C665.840859,532.548991 666.196328,533.040039 666.715859,533.819336 L666.715859,533.819336 L668.17875,536 L670.598672,536 L669.375039,534.044922 C668.891966,533.265625 668.508014,532.723307 668.223184,532.417969 C667.938353,532.11263 667.577188,531.832357 667.139688,531.577148 C668.019245,531.449544 668.680052,531.140788 669.122109,530.650879 C669.564167,530.16097 669.785195,529.540039 669.785195,528.788086 C669.785195,528.195638 669.639362,527.669271 669.347695,527.208984 C669.056029,526.748698 668.66752,526.428548 668.182168,526.248535 C667.696816,526.068522 666.918659,525.978516 665.847695,525.978516 L665.847695,525.978516 L661.588906,525.978516 L661.588906,536 L663.612344,536 Z M665.109414,530.216797 L663.612344,530.216797 L663.612344,527.673828 L665.191445,527.673828 C666.011758,527.673828 666.503945,527.685221 666.668008,527.708008 C666.996133,527.762695 667.250202,527.893717 667.430215,528.101074 C667.610228,528.308431 667.700234,528.580729 667.700234,528.917969 C667.700234,529.21875 667.631875,529.469401 667.495156,529.669922 C667.358438,529.870443 667.16931,530.011719 666.927773,530.09375 C666.686237,530.175781 666.080117,530.216797 665.109414,530.216797 L665.109414,530.216797 Z M674.125378,536.164062 C674.922904,536.164062 675.587129,535.980632 676.118053,535.61377 C676.648978,535.246908 677.037487,534.712565 677.283581,534.010742 L677.283581,534.010742 L675.369518,533.689453 C675.264701,534.054036 675.109753,534.318359 674.904674,534.482422 C674.699596,534.646484 674.446667,534.728516 674.145885,534.728516 C673.703828,534.728516 673.334688,534.57015 673.038464,534.253418 C672.74224,533.936686 672.587292,533.49349 672.57362,532.923828 L672.57362,532.923828 L677.38612,532.923828 C677.413464,531.451823 677.114961,530.359212 676.490612,529.645996 C675.866263,528.93278 675.014049,528.576172 673.933971,528.576172 C672.972383,528.576172 672.177135,528.916829 671.548229,529.598145 C670.919323,530.27946 670.60487,531.22168 670.60487,532.424805 C670.60487,533.431966 670.844128,534.265951 671.322643,534.926758 C671.928763,535.751628 672.863008,536.164062 674.125378,536.164062 Z M675.478893,531.748047 L672.607799,531.748047 C672.603242,531.223958 672.737682,530.809245 673.01112,530.503906 C673.284557,530.198568 673.630911,530.045898 674.050182,530.045898 C674.442109,530.045898 674.774792,530.190592 675.048229,530.47998 C675.321667,530.769368 675.465221,531.192057 675.478893,531.748047 L675.478893,531.748047 Z M680.584701,536 L680.584701,530.250977 L682.020247,530.250977 L682.020247,528.740234 L680.584701,528.740234 L680.584701,528.227539 C680.584701,527.858398 680.645085,527.608887 680.765853,527.479004 C680.886621,527.349121 681.086003,527.28418 681.363997,527.28418 C681.646549,527.28418 681.940495,527.320638 682.245833,527.393555 L682.245833,527.393555 L682.505599,526.053711 C681.98151,525.889648 681.446029,525.807617 680.899154,525.807617 C680.365951,525.807617 679.925033,525.902181 679.5764,526.091309 C679.227767,526.280436 678.988509,526.525391 678.858626,526.826172 C678.728743,527.126953 678.663802,527.582682 678.663802,528.193359 L678.663802,528.193359 L678.663802,528.740234 L677.597396,528.740234 L677.597396,530.250977 L678.663802,530.250977 L678.663802,536 L680.584701,536 Z M684.425859,536 L684.425859,533.757812 C684.425859,532.522786 684.479408,531.711589 684.586504,531.324219 C684.6936,530.936849 684.840573,530.669108 685.027422,530.520996 C685.214271,530.372884 685.442135,530.298828 685.711016,530.298828 C685.98901,530.298828 686.289792,530.403646 686.613359,530.613281 L686.613359,530.613281 L687.208086,528.938477 C686.802487,528.69694 686.380938,528.576172 685.943438,528.576172 C685.633542,528.576172 685.356686,528.653646 685.112871,528.808594 C684.869056,528.963542 684.594479,529.284831 684.289141,529.772461 L684.289141,529.772461 L684.289141,528.740234 L682.504961,528.740234 L682.504961,536 L684.425859,536 Z M690.481862,536.164062 C691.279388,536.164062 691.943613,535.980632 692.474538,535.61377 C693.005462,535.246908 693.393971,534.712565 693.640065,534.010742 L693.640065,534.010742 L691.726003,533.689453 C691.621185,534.054036 691.466237,534.318359 691.261159,534.482422 C691.056081,534.646484 690.803151,534.728516 690.50237,534.728516 C690.060313,534.728516 689.691172,534.57015 689.394948,534.253418 C689.098724,533.936686 688.943776,533.49349 688.930104,532.923828 L688.930104,532.923828 L693.742604,532.923828 C693.769948,531.451823 693.471445,530.359212 692.847096,529.645996 C692.222747,528.93278 691.370534,528.576172 690.290456,528.576172 C689.328867,528.576172 688.53362,528.916829 687.904714,529.598145 C687.275807,530.27946 686.961354,531.22168 686.961354,532.424805 C686.961354,533.431966 687.200612,534.265951 687.679128,534.926758 C688.285247,535.751628 689.219492,536.164062 690.481862,536.164062 Z M691.835378,531.748047 L688.964284,531.748047 C688.959727,531.223958 689.094167,530.809245 689.367604,530.503906 C689.641042,530.198568 689.987396,530.045898 690.406667,530.045898 C690.798594,530.045898 691.131276,530.190592 691.404714,530.47998 C691.678151,530.769368 691.821706,531.192057 691.835378,531.748047 L691.835378,531.748047 Z M697.597435,536.164062 C698.686628,536.164062 699.509219,535.924805 700.065208,535.446289 C700.621198,534.967773 700.899193,534.395833 700.899193,533.730469 C700.899193,533.119792 700.698672,532.643555 700.29763,532.301758 C699.892031,531.964518 699.177676,531.679688 698.154564,531.447266 C697.131452,531.214844 696.533307,531.034831 696.36013,530.907227 C696.232526,530.811523 696.168724,530.695312 696.168724,530.558594 C696.168724,530.399089 696.241641,530.269206 696.387474,530.168945 C696.606224,530.027669 696.968529,529.957031 697.474388,529.957031 C697.87543,529.957031 698.184186,530.032227 698.400658,530.182617 C698.617129,530.333008 698.764102,530.549479 698.841576,530.832031 L698.841576,530.832031 L700.653099,530.49707 C700.470807,529.863607 700.138125,529.385091 699.655052,529.061523 C699.171979,528.737956 698.433698,528.576172 697.440208,528.576172 C696.396589,528.576172 695.626406,528.790365 695.129661,529.21875 C694.632917,529.647135 694.384544,530.175781 694.384544,530.804688 C694.384544,531.501953 694.671654,532.046549 695.245872,532.438477 C695.660586,532.721029 696.642682,533.033203 698.192161,533.375 C698.524844,533.452474 698.739036,533.536784 698.83474,533.62793 C698.925885,533.723633 698.971458,533.844401 698.971458,533.990234 C698.971458,534.204427 698.887148,534.375326 698.718529,534.50293 C698.467878,534.685221 698.09418,534.776367 697.597435,534.776367 C697.146263,534.776367 696.795352,534.679525 696.544701,534.48584 C696.294049,534.292155 696.127708,534.008464 696.045677,533.634766 L696.045677,533.634766 L694.117943,533.928711 C694.295677,534.616862 694.672793,535.161458 695.24929,535.5625 C695.825788,535.963542 696.608503,536.164062 697.597435,536.164062 Z M703.981563,536 L703.981563,532.363281 C703.981563,531.752604 704.039668,531.291178 704.155879,530.979004 C704.27209,530.666829 704.455521,530.433268 704.706172,530.27832 C704.956823,530.123372 705.241654,530.045898 705.560664,530.045898 C705.838659,530.045898 706.069941,530.106283 706.254512,530.227051 C706.439082,530.347819 706.567826,530.510742 706.640742,530.71582 C706.713659,530.920898 706.750117,531.403971 706.750117,532.165039 L706.750117,532.165039 L706.750117,536 L708.671016,536 L708.671016,531.741211 C708.671016,531.089518 708.637975,530.608724 708.571895,530.298828 C708.505814,529.988932 708.382767,529.70638 708.202754,529.451172 C708.022741,529.195964 707.755,528.986328 707.399531,528.822266 C707.044063,528.658203 706.645299,528.576172 706.203242,528.576172 C705.341914,528.576172 704.601354,528.938477 703.981563,529.663086 L703.981563,529.663086 L703.981563,525.978516 L702.060664,525.978516 L702.060664,536 L703.981563,536 Z" id="hitRefresh"></path>
        </g>
    </g>
</svg>